<?xml version="1.0" standalone="no"?>
<!DOCTYPE svg PUBLIC "-//W3C//DTD SVG 20010904//EN"
 "http://www.w3.org/TR/2001/REC-SVG-20010904/DTD/svg10.dtd">
<svg version="1.0" xmlns="http://www.w3.org/2000/svg"
 width="512.000000pt" height="512.000000pt" viewBox="0 0 512.000000 512.000000"
 preserveAspectRatio="xMidYMid meet">

<g transform="translate(0.000000,512.000000) scale(0.100000,-0.100000)"
fill="#000000" stroke="none">
<path d="M437 2983 c-20 -323 -1 -627 53 -850 155 -638 557 -1039 1155 -1150
124 -23 426 -23 550 0 329 60 602 210 804 442 213 243 352 581 396 960 16 135
20 416 8 598 l-6 107 -213 0 c-166 0 -213 -3 -209 -12 2 -7 6 -55 10 -105 l6
-93 -164 0 -164 0 -13 105 -13 105 -803 0 c-442 0 -804 -4 -804 -8 0 -37 -33
-226 -46 -259 -19 -51 -76 -104 -138 -128 -55 -21 -125 -16 -183 13 -104 54
-139 155 -114 330 l7 52 -56 0 -57 0 -6 -107z m513 -473 c38 -19 79 -65 95
-105 4 -11 11 -103 16 -205 6 -149 12 -205 33 -285 46 -177 129 -316 233 -384
54 -36 48 -38 -28 -12 -173 59 -358 198 -464 346 -120 168 -200 425 -165 529
15 47 65 105 105 122 46 20 129 17 175 -6z"/>
</g>
</svg>
